<?xml version="1.0" standalone="no"?><!DOCTYPE svg PUBLIC "-//W3C//DTD SVG 1.1//EN" "http://www.w3.org/Graphics/SVG/1.1/DTD/svg11.dtd"><svg class="icon" width="200px" height="200.00px" viewBox="0 0 1024 1024" version="1.1" xmlns="http://www.w3.org/2000/svg"><path d="M955.434667 256c-7.125333-12.373333-16.981333-23.168-27.818667-29.44L551.466667 9.386667c-21.674667-12.501333-57.130667-12.501333-78.805334 0L96.426667 226.56c-21.674667 12.501333-39.381333 43.221333-39.381334 68.266667v434.346666c0 12.544 4.437333 26.453333 11.562667 38.826667 7.125333 12.373333 16.981333 23.168 27.818667 29.397333l376.149333 217.216c21.674667 12.501333 57.130667 12.501333 78.805333 0l376.149334-217.216c10.837333-6.229333 20.693333-17.024 27.818666-29.397333s11.562667-26.282667 11.562667-38.826667V294.826667c0.085333-12.544-4.352-26.453333-11.477333-38.826667zM512 815.317333c-167.253333 0-303.317333-136.064-303.317333-303.317333S344.746667 208.682667 512 208.682667a304.341333 304.341333 0 0 1 262.656 151.552l-131.242667 75.989333A152.192 152.192 0 0 0 512 360.32c-83.626667 0-151.637333 68.053333-151.637333 151.68S428.373333 663.68 512 663.68a152.32 152.32 0 0 0 131.413333-75.861333l131.285334 75.946666A304.426667 304.426667 0 0 1 512 815.317333z m303.317333-286.464h-33.706666v33.706667h-33.706667v-33.706667h-33.706667v-33.706666h33.706667v-33.706667h33.706667v33.706667h33.706666v33.706666z m126.378667 0h-33.706667v33.706667h-33.706666v-33.706667h-33.664v-33.706666h33.664v-33.706667h33.706666v33.706667h33.706667v33.706666z" fill="#16ce9e" /></svg>