<?xml version="1.0" standalone="no"?><!DOCTYPE svg PUBLIC "-//W3C//DTD SVG 1.1//EN" "http://www.w3.org/Graphics/SVG/1.1/DTD/svg11.dtd"><svg class="icon" width="200px" height="187.55px" viewBox="0 0 1092 1024" version="1.1" xmlns="http://www.w3.org/2000/svg"><path d="M1041.2032 759.125333c13.653333 13.858133 27.306667 31.1296 37.4784 48.3328l10.24 13.858134c3.345067 3.413333 3.345067 10.308267 3.345067 13.789866a477.047467 477.047467 0 0 1-74.888534-24.1664c-27.170133-13.789867-81.646933-37.956267-81.646933-37.956266-139.4688-65.536-125.883733-72.4992-146.295467-86.289067l-27.2384-27.579733c-17.066667-17.271467-33.9968-37.956267-44.2368-62.122667-3.413333-13.789867-6.826667-24.1664-13.653333-37.956267-3.413333 3.413333-3.413333 6.894933-3.413333 10.376534-6.7584 20.6848-6.7584 44.8512-23.7568 51.746133-20.48 6.826667-33.9968-17.271467-37.410134-27.648a185.412267 185.412267 0 0 1 3.413334-141.448533c3.413333-10.376533 6.826667-20.6848 13.585066-31.061334 0-6.894933-3.413333-10.376533-6.826666-13.789866-3.413333-10.376533-6.826667-17.271467-10.24-27.648-6.7584-20.6848-10.171733-37.956267-13.585067-58.641067-10.24-17.271467-10.24-24.1664-10.24-31.061333a162.133333 162.133333 0 0 0-16.930133-34.474667c-6.826667-13.858133-30.651733-44.919467-17.066667-69.0176 6.826667-13.858133 20.48-20.753067 34.065067-17.271467 23.825067 6.894933 44.2368 17.271467 61.2352 34.474667 3.413333 6.894933 10.24 10.376533 17.066666 17.271467 10.171733 0 20.343467 3.413333 30.583467 3.413333 16.9984 3.4816 33.9968 13.858133 47.650133 20.753067 61.2352 44.8512 105.472 103.492267 136.055467 172.509866 6.826667 17.271467 10.24 34.542933 13.653333 51.8144 6.826667 24.1664 16.9984 51.746133 23.825067 75.912534 3.413333 10.308267 6.826667 24.1664 13.653333 34.474666 3.345067 3.413333 10.171733 6.894933 13.5168 10.376534 13.653333 10.376533 27.306667 17.271467 37.4784 24.1664 20.411733 17.2032 40.823467 37.956267 57.821867 58.709333 6.826667 6.826667 10.24 17.2032 17.066667 27.511467v3.4816c-6.826667 0-13.653333 3.413333-20.48 3.413333-13.653333 3.4816-27.2384 0-40.823467 3.4816-10.24 3.413333-17.066667 3.413333-27.2384 3.413333 6.826667 17.271467 30.651733 31.1296 44.2368 44.919467z m-306.244267-517.597866c-3.413333-6.826667-10.24-10.308267-16.9984-13.789867h-3.413333c-16.9984-3.413333-33.9968 10.376533-20.411733 24.1664 10.24 17.271467 20.48 34.542933 23.893333 55.227733 13.585067-3.413333 20.343467-13.789867 23.7568-27.648 3.413333-10.308267 0-24.098133-6.826667-37.956266z m3.413334-89.7024l-6.826667-3.413334-37.410133-6.894933s-3.413333-3.4816-3.413334-6.9632l-10.24-10.308267c-33.9968-24.1664-64.580267-41.437867-101.9904-51.746133-27.306667-3.4816-57.890133 10.308267-68.061866 37.956267-20.48 41.3696 3.413333 86.2208 16.9984 106.973866 3.413333 3.413333 3.413333 6.826667 6.826666 10.308267l6.826667 10.376533c6.7584 10.376533 10.171733 20.6848 13.585067 31.061334 0 3.413333 3.413333 6.826667 3.413333 13.789866 0 6.894933 0 10.376533 3.413333 17.271467l3.413334 20.6848c3.345067 20.6848 10.171733 41.437867 16.930133 58.709333 3.413333 13.789867 10.24 27.579733 17.066667 41.3696-57.890133 10.376533-115.712 13.789867-173.533867 13.789867C190.464 434.858667 3.413333 365.909333 3.413333 279.483733v-124.245333C3.413333 69.085867 190.464 0 421.888 0c231.424 0 418.6112 69.0176 418.6112 155.306667v62.122666a361.608533 361.608533 0 0 0-40.891733-34.542933 256.2048 256.2048 0 0 0-61.2352-31.061333z m-316.416 376.149333c50.9952 0 102.058667-3.413333 153.122133-10.376533-10.24 51.8144-6.826667 106.973867 13.653333 155.306666 3.345067 10.376533 10.171733 17.271467 13.5168 27.579734-57.821867 10.376533-119.057067 13.858133-180.292266 13.858133C190.464 714.3424 3.413333 645.3248 3.413333 559.035733v-186.368c0 86.289067 187.118933 155.306667 418.474667 155.306667z m0 279.483733c129.297067 0 244.9408-20.6848 319.829333-55.159466 3.413333 6.826667 10.24 10.308267 13.653333 17.2032 3.413333 3.4816 6.826667 6.9632 10.171734 13.858133 6.826667 10.308267 17.066667 17.2032 23.825066 27.579733l10.24 10.376534c10.171733 10.308267 23.7568 20.6848 37.410134 27.579733-10.24 82.807467-193.9456 148.411733-418.542934 148.411733C187.050667 997.307733 0 928.290133 0 842.001067v-186.368c3.413333 82.875733 190.532267 151.825067 421.888 151.825066z" fill="#00B69A" /><path d="M0 135.9872c0 75.093333 171.349333 135.9872 382.839467 135.9872 28.2624 0 130.935467 1.501867 172.509866 1.501867 5.870933 0 3.003733-10.717867 0-17.476267a120.558933 120.558933 0 0 0-18.6368-28.808533c-19.387733-23.278933-21.435733-46.216533-30.856533-64.3072-9.898667-18.978133 3.003733-68.949333 30.856533-77.687467 10.171733-3.208533 45.8752-7.509333 61.713067-4.3008 15.701333 3.208533 26.282667 7.168 49.698133 22.528 15.36 9.966933 31.880533 16.520533 44.578134 38.775467 1.160533 1.979733 12.288 1.8432 18.978133 2.730666 6.690133 0.887467 12.970667 2.321067 18.363733 4.846934 19.933867 9.557333 44.919467 18.432 55.637334 24.644266 10.786133 6.144 54.818133 45.4656 54.818133 41.1648v-65.809066c0-8.6016-3.413333-9.079467-3.413333-13.789867 0-44.100267-82.670933-89.2928-194.56-114.141867C563.746133 4.437333 470.084267 0 382.7712 0 171.4176 0 0 60.893867 0 135.9872z" fill="#1ACFB3" /></svg>