<?xml version="1.0" standalone="no"?><!DOCTYPE svg PUBLIC "-//W3C//DTD SVG 1.1//EN" "http://www.w3.org/Graphics/SVG/1.1/DTD/svg11.dtd"><svg class="icon" width="200px" height="200.00px" viewBox="0 0 1024 1024" version="1.1" xmlns="http://www.w3.org/2000/svg"><path d="M923.136 267.605333v701.952H193.024v-909.653333h521.216z" fill="#7CCDFF" /><path d="M912.896 253.952l2.56 671.914667c0 15.530667-12.458667 27.989333-27.989333 27.989333H237.909333c-15.530667 0-27.989333-12.458667-27.989333-27.989333V96.938667c0-15.530667 12.458667-27.989333 27.989333-27.989334l493.397334-1.024-38.912-39.936H239.274667c-36.352 0-65.706667 29.354667-65.706667 65.706667v835.584c0 36.352 29.354667 65.706667 65.706667 65.706667h646.826666c36.352 0 65.706667-29.354667 65.706667-65.706667V293.888l-38.912-39.936z" fill="#4191FB" /><path d="M692.394667 222.72c0 39.424 31.914667 71.338667 71.338666 71.338667h188.245334L692.394667 27.989333v194.730667z" fill="#C7E2FF" /><path d="M557.568 482.304H158.72c-50.346667 0-91.136-40.789333-91.136-91.136v-60.245333c0-50.346667 40.789333-91.136 91.136-91.136h398.848c50.346667 0 91.136 40.789333 91.136 91.136v60.245333c0 50.346667-40.789333 91.136-91.136 91.136z" fill="#4191FB" /><path d="M112.298667 287.573333H221.866667V325.973333h-36.864v117.248H148.992V325.973333H112.298667v-38.4zM238.250667 287.573333h96.768V320.853333h-60.586667v24.746667h56.149333v31.744h-56.149333v30.72h62.293333v35.328h-98.474666v-155.818667zM355.669333 287.573333h47.445334l18.261333 94.72 18.090667-94.72h47.445333v155.818667H457.386667v-118.784l-22.698667 118.784H407.893333l-22.698666-118.784v118.784h-29.525334v-155.818667zM509.781333 287.573333h59.904c13.141333 0 22.869333 4.096 29.354667 12.458667 6.485333 8.362667 9.728 20.138667 9.728 35.328 0 15.701333-3.584 27.989333-10.581333 36.864-7.168 8.874667-17.92 13.312-32.426667 13.312H546.133333v57.856h-36.181333l-0.170667-155.818667z m36.352 66.389334h8.874667c6.997333 0 11.776-1.536 14.677333-4.778667 2.730667-3.242667 4.266667-7.338667 4.266667-12.458667 0-4.949333-1.194667-9.045333-3.584-12.458666s-6.997333-5.12-13.824-5.12h-10.24v34.816h-0.170667z" fill="#FFFFFF" /><path d="M741.546667 688.469333l-144.213334 64.853334c-18.944 8.533333-50.005333 8.533333-69.12 0l-144.213333-64.853334c-18.944-8.533333-18.944-22.528 0-31.061333l144.213333-64.853333c18.944-8.533333 50.005333-8.533333 69.12 0l144.213334 64.853333c18.944 8.533333 18.944 22.528 0 31.061333z" fill="#4191FB" /><path d="M741.546667 707.242667l-144.213334 64.853333c-18.944 8.533333-50.005333 8.533333-69.12 0l-144.213333-64.853333c-5.290667-2.389333-9.216-5.290667-11.605333-8.192-5.973333 7.68-2.048 16.725333 11.605333 22.869333l144.213333 64.853333c18.944 8.533333 50.005333 8.533333 69.12 0l144.213334-64.853333c13.653333-6.144 17.408-15.018667 11.605333-22.869333-2.56 2.901333-6.314667 5.802667-11.605333 8.192z" fill="#4191FB" /><path d="M741.546667 741.546667l-144.213334 64.853333c-18.944 8.533333-50.005333 8.533333-69.12 0l-144.213333-64.853333c-5.290667-2.389333-9.216-5.290667-11.605333-8.192-5.973333 7.68-2.048 16.725333 11.605333 22.869333l144.213333 64.853333c18.944 8.533333 50.005333 8.533333 69.12 0l144.213334-64.853333c13.653333-6.144 17.408-15.018667 11.605333-22.869333-2.56 2.901333-6.314667 5.802667-11.605333 8.192z" fill="#4191FB" /><path d="M741.546667 774.485333l-144.213334 64.853334c-18.944 8.533333-50.005333 8.533333-69.12 0l-144.213333-64.853334c-5.290667-2.389333-9.216-5.290667-11.605333-8.192-5.973333 7.68-2.048 16.725333 11.605333 22.869334l144.213333 64.853333c18.944 8.533333 50.005333 8.533333 69.12 0l144.213334-64.853333c13.653333-6.144 17.408-15.018667 11.605333-22.869334-2.56 2.901333-6.314667 5.802667-11.605333 8.192z" fill="#4191FB" /></svg>